<svg width="390" height="47" viewBox="0 0 390 47" fill="none" xmlns="http://www.w3.org/2000/svg">
<rect width="390" height="47" fill="white"/>
<path d="M41.7873 32.2905C44.8337 32.2905 46.6432 29.9082 46.6432 25.874C46.6432 21.9146 44.7175 19.7231 41.8537 19.7231C39.2473 19.7231 37.4045 21.4746 37.4045 23.9316C37.4045 26.231 39.0646 27.9077 41.3474 27.9077C42.7502 27.9077 43.8874 27.2603 44.4518 26.123H44.593C44.5681 28.8955 43.5637 30.4976 41.8122 30.4976C40.7829 30.4976 39.9611 29.9414 39.7038 29.0449H37.5705C37.9191 31.0039 39.5959 32.2905 41.7873 32.2905ZM41.862 26.2144C40.4675 26.2144 39.5046 25.2515 39.5046 23.8652C39.5046 22.5288 40.5173 21.5078 41.8703 21.5078C43.2233 21.5078 44.236 22.5454 44.236 23.9067C44.236 25.2432 43.2482 26.2144 41.862 26.2144ZM49.9955 30.3481C50.7841 30.3481 51.3236 29.7837 51.3236 29.0366C51.3236 28.2812 50.7841 27.7251 49.9955 27.7251C49.2152 27.7251 48.6674 28.2812 48.6674 29.0366C48.6674 29.7837 49.2152 30.3481 49.9955 30.3481ZM49.9955 24.2886C50.7841 24.2886 51.3236 23.7324 51.3236 22.9854C51.3236 22.23 50.7841 21.6738 49.9955 21.6738C49.2152 21.6738 48.6674 22.23 48.6674 22.9854C48.6674 23.7324 49.2152 24.2886 49.9955 24.2886ZM59.1915 32H61.2418V29.7173H62.8605V27.9077H61.2418V20.022H58.2203C56.5934 22.4956 54.8917 25.2266 53.3395 27.9326V29.7173H59.1915V32ZM55.3233 27.8413C56.4938 25.8242 57.88 23.6245 59.1085 21.7651H59.2247V27.9575H55.3233V27.8413ZM67.3582 32H69.4998V20.022H67.3665L64.2371 22.2134V24.272L67.2171 22.1802H67.3582V32Z" fill="black"/>
<path opacity="0.35" d="M336.5 23C336.5 21.067 338.067 19.5 340 19.5H357C358.933 19.5 360.5 21.067 360.5 23V28C360.5 29.933 358.933 31.5 357 31.5H340C338.067 31.5 336.5 29.933 336.5 28V23Z" stroke="black"/>
<path opacity="0.4" d="M362 24V28.2203C362.849 27.8629 363.401 27.0314 363.401 26.1102C363.401 25.1889 362.849 24.3574 362 24Z" fill="black"/>
<path d="M338 23C338 21.8954 338.895 21 340 21H357C358.105 21 359 21.8954 359 23V28C359 29.1046 358.105 30 357 30H340C338.895 30 338 29.1046 338 28V23Z" fill="black"/>
<path fill-rule="evenodd" clip-rule="evenodd" d="M320.5 22.5875C322.967 22.5876 325.339 23.5551 327.127 25.2898C327.261 25.4237 327.477 25.4221 327.609 25.286L328.896 23.9605C328.963 23.8915 329.001 23.798 329 23.7008C328.999 23.6035 328.961 23.5105 328.893 23.4423C324.201 18.8526 316.799 18.8526 312.107 23.4423C312.039 23.5105 312.001 23.6034 312 23.7007C311.999 23.7979 312.037 23.8914 312.104 23.9605L313.391 25.286C313.523 25.4223 313.739 25.424 313.873 25.2898C315.661 23.5549 318.034 22.5875 320.5 22.5875ZM320.536 26.5894C321.891 26.5893 323.198 27.1035 324.203 28.032C324.338 28.1638 324.552 28.1609 324.685 28.0255L325.97 26.7C326.038 26.6304 326.075 26.5361 326.074 26.4381C326.073 26.3401 326.034 26.2466 325.965 26.1784C322.906 23.2739 318.169 23.2739 315.109 26.1784C315.04 26.2466 315.001 26.3401 315 26.4382C314.999 26.5362 315.037 26.6305 315.105 26.7L316.39 28.0255C316.522 28.1609 316.736 28.1638 316.872 28.032C317.876 27.1041 319.182 26.5899 320.536 26.5894ZM323.15 29.1767C323.152 29.275 323.114 29.3698 323.045 29.4386L320.822 31.7289C320.756 31.7962 320.668 31.834 320.575 31.834C320.482 31.834 320.393 31.7962 320.328 31.7289L318.105 29.4386C318.036 29.3697 317.998 29.2749 318 29.1766C318.002 29.0783 318.044 28.9853 318.115 28.9194C319.535 27.6935 321.615 27.6935 323.035 28.9194C323.106 28.9853 323.148 29.0784 323.15 29.1767Z" fill="black"/>
<path d="M296 23C296 22.4477 296.448 22 297 22H298C298.552 22 299 22.4477 299 23V31C299 31.5523 298.552 32 298 32H297C296.448 32 296 31.5523 296 31V23Z" fill="black"/>
<path d="M301 21C301 20.4477 301.448 20 302 20H303C303.552 20 304 20.4477 304 21V31C304 31.5523 303.552 32 303 32H302C301.448 32 301 31.5523 301 31V21Z" fill="black"/>
<path d="M291 26.5C291 25.9477 291.448 25.5 292 25.5H293C293.552 25.5 294 25.9477 294 26.5V31C294 31.5523 293.552 32 293 32H292C291.448 32 291 31.5523 291 31V26.5Z" fill="black"/>
<path d="M286 29C286 28.4477 286.448 28 287 28H288C288.552 28 289 28.4477 289 29V31C289 31.5523 288.552 32 288 32H287C286.448 32 286 31.5523 286 31V29Z" fill="black"/>
</svg>
