<svg width="24" height="24" viewBox="0 0 24 24" fill="none" xmlns="http://www.w3.org/2000/svg">
<path d="M8.4 19C14.9 19 18.5 13.6 18.5 8.9C18.5 8.7 18.5 8.6 18.5 8.4C19.2 7.9 19.8 7.3 20.3 6.6C19.7 6.9 19 7.1 18.3 7.2C19 6.8 19.6 6.1 19.9 5.2C19.2 5.6 18.5 5.9 17.7 6.1C16.9 5.4 15.9 5 14.9 5C12.9 5 11.4 6.6 11.4 8.5C11.4 8.8 11.4 9 11.5 9.3C8.5 9.2 5.9 7.8 4.2 5.6C3.9 6.2 3.7 6.8 3.7 7.4C3.7 8.6 4.3 9.7 5.3 10.3C4.7 10.3 4.2 10.1 3.7 9.9C3.7 11.6 4.9 13 6.5 13.4C6.2 13.5 5.9 13.6 5.6 13.6C5.4 13.6 5.2 13.6 4.9 13.5C5.3 14.9 6.7 15.9 8.2 16C7 16.9 5.5 17.5 3.8 17.5C3.5 17.5 3.2 17.5 3 17.5C4.6 18.4 6.4 19 8.4 19Z" fill="black"/>
</svg>
